<svg xmlns="http://www.w3.org/2000/svg" width="260.974" height="62.442" viewBox="0 0 260.974 62.442"><path d="M221.6,61.439a.2.2,0,0,1-.21-.224V54.81c0-.154.1-.224.252-.168.2.07.434.182.729.308h5.564l.378-.42a.208.208,0,0,1,.309-.028c.477.322.7.546.7.659a.29.29,0,0,1-.126.2l-.294.238v4.681c0,.645-.406.981-1.22,1.023-.14,0-.2-.07-.238-.2a.654.654,0,0,0-.308-.308,4.538,4.538,0,0,0-1.317-.322.221.221,0,0,1-.21-.238c0-.112.084-.168.238-.154.574.056,1.177.1,1.78.1.294,0,.434-.14.434-.393V58.5h-5.844v2.719a.2.2,0,0,1-.224.224Zm.617-3.294h5.844V56.814h-5.844Zm0-1.682h5.844V55.3h-5.844Zm-11.185,4.976c-.154,0-.224-.07-.224-.21V57.038a11.339,11.339,0,0,1-3.981,3.574.224.224,0,0,1-.308-.056c-.07-.1-.042-.182.084-.266a12.089,12.089,0,0,0,3.938-4.261h-3.56a.245.245,0,0,1-.252-.168c-.056-.1.028-.182.2-.182H210.8v-2.13h-1.892v.589c0,.154-.07.224-.21.224h-.364a.2.2,0,0,1-.224-.224v-4.4c0-.168.112-.238.266-.154a6.043,6.043,0,0,1,.659.35h4.3l.421-.5a.208.208,0,0,1,.308-.028c.449.365.673.617.673.743,0,.056-.042.1-.112.154l-.364.21v3.546c0,.154-.07.224-.21.224h-.35c-.154,0-.224-.07-.224-.224v-.5h-1.864v2.13h2.677l.575-.715a.2.2,0,0,1,.308-.042q.273.252.673.673a.236.236,0,0,1,.028.308.26.26,0,0,1-.238.126h-3.91l.056.07a15.01,15.01,0,0,0,4.191,3.378c.14.07.154.182.028.294a2.582,2.582,0,0,0-.435.448.2.2,0,0,1-.308.056,13.117,13.117,0,0,1-3.644-3.756v4.709a.186.186,0,0,1-.21.21ZM208.913,53.2h4.569V50.283h-4.569Zm-3.644,8.241a.2.2,0,0,1-.224-.224v-6.9a20.59,20.59,0,0,1-1.4,2.467.2.2,0,0,1-.309.07c-.084-.056-.084-.154-.028-.266a25.453,25.453,0,0,0,2.621-7.5.2.2,0,0,1,.266-.168c.729.168,1.093.35,1.093.533,0,.126-.2.224-.6.294-.266,1-.617,2.06-1.051,3.21.533.084.785.21.785.364,0,.112-.2.238-.575.378v7.513a.2.2,0,0,1-.224.224Zm-76.7,0a.2.2,0,0,1-.224-.21v-5.7a12.842,12.842,0,0,1-1.934,1.752.209.209,0,0,1-.309-.028c-.056-.056-.028-.14.07-.238a15.686,15.686,0,0,0,3.7-5.172H126.7a.234.234,0,0,1-.252-.168c-.056-.112.028-.182.2-.182h1.654V49.077a.2.2,0,0,1,.238-.21c.757.042,1.135.168,1.135.365,0,.112-.21.238-.589.364v1.892h.785l.365-.477c.07-.126.2-.14.308-.014.421.406.617.673.617.785,0,.07-.028.112-.126.154l-.35.182a16.217,16.217,0,0,1-1.542,2.467c1.261.561,1.878,1.107,1.878,1.668,0,.336-.14.491-.434.491-.2,0-.35-.112-.449-.378a3.714,3.714,0,0,0-1-1.346v6.209a.186.186,0,0,1-.21.21Zm-67.178,0a.2.2,0,0,1-.224-.21V55.5a17.959,17.959,0,0,1-1.836,1.752.209.209,0,0,1-.309-.028c-.084-.07-.07-.168.028-.28a19.4,19.4,0,0,0,3.742-5.1H59.5a.228.228,0,0,1-.238-.168c-.042-.112.042-.182.2-.182h1.724v-2.4a.211.211,0,0,1,.238-.224c.757.042,1.121.168,1.121.365,0,.112-.2.238-.589.364v1.892h.771l.393-.5a.2.2,0,0,1,.322-.014c.449.42.659.7.659.827,0,.056-.028.084-.084.112l-.392.182a20.469,20.469,0,0,1-1.654,2.467v.182c1.486.6,2.228,1.191,2.228,1.78q0,.5-.462.5c-.154,0-.322-.14-.477-.421a4.219,4.219,0,0,0-1.289-1.43v6.055a.186.186,0,0,1-.21.21Zm-6.167,0A.2.2,0,0,1,55,61.215v-.477h-5.34v.477a.206.206,0,0,1-.224.224h-.364a.2.2,0,0,1-.224-.224V55.749c0-.168.1-.238.252-.182.2.084.434.2.729.322h5.074l.378-.449a.19.19,0,0,1,.308-.028c.477.364.7.617.7.715,0,.07-.042.126-.126.182l-.35.224v4.681a.2.2,0,0,1-.224.224Zm-2.551-1.051H55V58.412H52.677Zm-3.014,0h2.229V58.412H49.664Zm3.014-2.327H55V56.24H52.677Zm-3.014,0h2.229V56.24H49.664Zm-3.784,3.378a.186.186,0,0,1-.21-.21V55.651a16.912,16.912,0,0,1-1.822,1.626.208.208,0,0,1-.308-.028c-.056-.056-.028-.14.084-.238a17.666,17.666,0,0,0,3.742-5.172h-3.35a.239.239,0,0,1-.238-.168c-.042-.112.042-.182.2-.182h1.7V49.077c0-.14.084-.224.252-.21.729.042,1.107.168,1.107.35q0,.189-.589.378v1.892h.841l.392-.49a.184.184,0,0,1,.309-.028c.462.42.7.687.7.8,0,.056-.042.1-.112.14l-.393.182A17.359,17.359,0,0,1,46.44,54.74a7.246,7.246,0,0,1,1.429.841c.491.378.729.7.729,1,0,.336-.14.49-.434.49-.168,0-.322-.14-.449-.406a4.039,4.039,0,0,0-1.275-1.472v6.041a.186.186,0,0,1-.21.21Zm-30.372,0a.186.186,0,0,1-.21-.21V55.637a19.142,19.142,0,0,1-2,1.724.209.209,0,0,1-.309-.028c-.084-.1-.056-.182.056-.28a15.809,15.809,0,0,0,3.966-5.214H13.4a.245.245,0,0,1-.252-.168c-.056-.112.028-.182.2-.182h1.934V49.063a.2.2,0,0,1,.224-.21q1.136.042,1.136.336c0,.112-.2.238-.575.393v1.906h.911l.392-.5c.084-.126.2-.126.322-.014.449.42.687.7.687.827,0,.056-.042.1-.126.14l-.406.182a18.037,18.037,0,0,1-1.724,2.593v.042a6.277,6.277,0,0,1,1.892.9c.449.337.673.659.673.953,0,.322-.14.49-.435.49-.168,0-.322-.126-.477-.364a5.234,5.234,0,0,0-1.654-1.57v6.069a.2.2,0,0,1-.224.21Zm60.339-.5c0-.014.028-.21.07-.561A7.5,7.5,0,0,0,76,59.337a1.322,1.322,0,0,0-.967-1.457.239.239,0,0,1-.2-.238c0-.112.084-.154.224-.14s.266.028.364.028a.874.874,0,0,0,.855-.491,41.1,41.1,0,0,0,2.06-5.466c.056-.154.168-.2.28-.126a.235.235,0,0,1,.1.294L76.953,57.7l-.056.2a2.994,2.994,0,0,0-.154.813,2.366,2.366,0,0,0,.084.547,4.785,4.785,0,0,1,.182,1.233c0,.6-.21.925-.645.925C76.014,61.411,75.846,61.257,75.846,60.935Zm162.963.378c-.07-.07-.056-.168.028-.28a10.278,10.278,0,0,0,2.172-6.854V50.465c0-.168.112-.238.266-.168.238.126.435.21.575.294a11.959,11.959,0,0,0,3.111-1.374.252.252,0,0,1,.309,0c.518.35.785.6.785.757,0,.1-.1.14-.28.14a3.032,3.032,0,0,1-.406-.042,24.142,24.142,0,0,1-3.462.883l-.07.014v3h3.532l.533-.729c.1-.126.2-.14.308-.028a6.218,6.218,0,0,1,.6.7.234.234,0,0,1,.028.294.237.237,0,0,1-.238.112h-1.808v6.77c0,.154-.07.224-.21.224h-.392a.2.2,0,0,1-.224-.224v-6.77h-2.13c-.07,3.112-.967,5.438-2.719,6.994a.208.208,0,0,1-.148.068A.25.25,0,0,1,238.809,61.313ZM110.9,61.229c-.056-.1,0-.2.154-.224a10.945,10.945,0,0,0,3.868-1.976A.276.276,0,0,1,115.23,59c.589.322.883.561.883.729,0,.1-.112.154-.35.154-.042,0-.154-.014-.35-.028a15.345,15.345,0,0,1-4.233,1.5.327.327,0,0,1-.071.008A.238.238,0,0,1,110.9,61.229Zm41.529-.168a5.8,5.8,0,0,0-.771-1.135l-.294.042c-2.4.337-4.934.589-7.625.827-.084.322-.154.491-.252.491-.2,0-.392-.35-.589-1.065-.042-.154.112-.252.378-.266.827-.014,1.486-.028,1.948-.042a19.015,19.015,0,0,0,1.177-2.957,1.424,1.424,0,0,0,.042-.154l.014-.014.014-.056H142.8a.318.318,0,0,1-.266-.154c-.056-.112.014-.2.2-.2h9.082l.617-.743a.191.191,0,0,1,.308-.028l-.014-.014a5.857,5.857,0,0,1,.729.715.234.234,0,0,1,.028.309.281.281,0,0,1-.238.112h-5.719c-.6,1.191-1.163,2.187-1.682,3a1.848,1.848,0,0,0-.112.154l.785-.028c1.149-.042,2.621-.154,4.387-.266l.434-.028a9.827,9.827,0,0,0-1.766-1.486.2.2,0,0,1-.056-.308c.042-.07.126-.07.252-.014a9.782,9.782,0,0,1,2.985,2,1.749,1.749,0,0,1,.575,1.065c0,.35-.154.533-.477.533A.458.458,0,0,1,152.429,61.061Zm-113.389,0a5.786,5.786,0,0,0-.771-1.135l-.294.042c-2.4.337-4.933.589-7.625.827-.084.322-.154.491-.252.491-.2,0-.393-.35-.589-1.065-.042-.154.112-.252.378-.266.827-.014,1.485-.028,1.948-.042a19.011,19.011,0,0,0,1.177-2.957,1.39,1.39,0,0,0,.042-.154l.014-.014.014-.056H29.411a.317.317,0,0,1-.266-.154c-.056-.112.014-.2.2-.2h9.082l.617-.743a.192.192,0,0,1,.309-.028l-.014-.014a5.878,5.878,0,0,1,.729.715.234.234,0,0,1,.028.309.281.281,0,0,1-.238.112H34.134c-.6,1.191-1.163,2.187-1.682,3-.056.07-.084.112-.112.154l.785-.028c1.149-.042,2.621-.154,4.387-.266l.434-.028a9.838,9.838,0,0,0-1.766-1.486.2.2,0,0,1-.056-.308c.042-.07.126-.07.252-.014a9.786,9.786,0,0,1,2.985,2,1.749,1.749,0,0,1,.575,1.065c0,.35-.154.533-.477.533A.458.458,0,0,1,39.04,61.061Zm83.016-.028a11.631,11.631,0,0,0-3.756-1.626c-.154-.056-.21-.14-.154-.238a.238.238,0,0,1,.28-.126c3.055.462,4.569,1.051,4.569,1.794,0,.308-.14.462-.434.462A1.229,1.229,0,0,1,122.056,61.033Zm112.127.182c-.084-.07-.084-.154-.028-.266a10.8,10.8,0,0,0,1.051-5.214v-3.35c0-.168.112-.238.266-.154a5.723,5.723,0,0,1,.659.35h2.551l.378-.491c.084-.126.2-.126.308-.028.434.364.645.6.645.729a.24.24,0,0,1-.112.168l-.308.2v3.826a.2.2,0,0,1-.224.224h-.35a.2.2,0,0,1-.224-.224v-.715h-2.789a8.391,8.391,0,0,1-1.514,4.905.2.2,0,0,1-.308.042Zm1.836-5.3h2.775V52.932h-2.775Zm-98.658,5.326a.2.2,0,0,1-.224-.224v-.855h-3.49v.855c0,.154-.07.224-.21.224h-.393a.2.2,0,0,1-.224-.224V55.581a14.928,14.928,0,0,1-2.34,3,.2.2,0,0,1-.308,0c-.07-.07-.07-.154.028-.266a16.476,16.476,0,0,0,3.223-6.335h-1.948a.257.257,0,0,1-.252-.168c-.056-.112.028-.182.2-.182h2.088c.168-.813.308-1.626.434-2.439.014-.14.112-.21.266-.168.785.168,1.177.337,1.177.533,0,.14-.2.238-.6.308-.14.7-.28,1.289-.406,1.766h2.929l.589-.785a.191.191,0,0,1,.308-.028,7.977,7.977,0,0,1,.687.743.234.234,0,0,1,.028.294.245.245,0,0,1-.238.126h-4.4a15.4,15.4,0,0,1-1.135,3,6.288,6.288,0,0,1,.589.28h3.294l.365-.491a.2.2,0,0,1,.322-.028c.477.378.715.631.715.729,0,.056-.042.112-.14.182l-.336.224v5.144c0,.154-.07.224-.21.224Zm-3.714-1.43h3.49v-4.2h-3.49Zm-47.668.631q-.168-.4-.463-.967c-1.892.35-4.022.673-6.377.953-.1.35-.2.518-.309.518-.168,0-.322-.378-.49-1.107-.042-.154.028-.252.182-.252l1.289-.056.35-.014a19.832,19.832,0,0,0,1.528-4.163h-3.28a.257.257,0,0,1-.252-.168c-.042-.112.042-.182.2-.182h3.714V51.951H79.518a.242.242,0,0,1-.252-.182c-.042-.1.042-.168.2-.168h2.607V49.147a.2.2,0,0,1,.238-.21c.8.042,1.191.154,1.191.336,0,.126-.21.266-.617.421V51.6h2.06l.5-.757a.192.192,0,0,1,.308-.028c.182.2.392.434.631.729a.254.254,0,0,1,.028.294c-.042.084-.126.112-.252.112h-3.28v3.055H85.5l.631-.841a.178.178,0,0,1,.294-.028,7.667,7.667,0,0,1,.7.771.234.234,0,0,1,.014.308.267.267,0,0,1-.252.14H82.755a.467.467,0,0,0-.07.168,26.5,26.5,0,0,1-2.074,3.966l.421-.014c1.5-.042,2.915-.21,4.247-.378A13.965,13.965,0,0,0,83.6,57.052a.2.2,0,0,1,0-.308c.056-.07.14-.056.252.014a11.114,11.114,0,0,1,2.691,2.593A2.157,2.157,0,0,1,87,60.472q0,.589-.5.589C86.315,61.061,86.147,60.865,85.979,60.444Zm4.107.5c-.07-.1-.014-.182.112-.252a9.242,9.242,0,0,0,4.3-4.149,13.489,13.489,0,0,0,1.149-5.873V49.568c0-.14.07-.224.238-.21.841.042,1.261.168,1.261.364,0,.14-.21.266-.617.393v.462a9.791,9.791,0,0,0,5.817,9.349c.154.084.168.2.028.294a2.957,2.957,0,0,0-.462.491.222.222,0,0,1-.309.056A10.951,10.951,0,0,1,97.346,56.2a11.523,11.523,0,0,1-.925-3.322,10.985,10.985,0,0,1-1.78,5.06,9.231,9.231,0,0,1-4.261,3.1.265.265,0,0,1-.108.025A.228.228,0,0,1,90.086,60.949Zm82.567-.028c-.084-.1-.056-.2.07-.28a10.048,10.048,0,0,0,3.812-6.938.2.2,0,0,1,.28-.182c.743.2,1.121.378,1.121.575,0,.126-.21.224-.6.294a8.865,8.865,0,0,1-4.4,6.574.291.291,0,0,1-.138.044A.173.173,0,0,1,172.653,60.921ZM63.428,60.739a.275.275,0,0,1-.266-.168c-.042-.112.042-.182.21-.182h1.7V52.581a.2.2,0,0,1,.238-.21c.757.056,1.121.168,1.121.365,0,.112-.182.238-.547.364v7.288h1.766V49.582a.2.2,0,0,1,.238-.21c.841.056,1.247.2,1.247.393,0,.126-.21.252-.645.392v4.051h1.29l.5-.757a.192.192,0,0,1,.308-.028c.21.224.42.462.6.7a.233.233,0,0,1,.028.294.267.267,0,0,1-.252.14H68.487v5.831H70.1l.617-.855a.173.173,0,0,1,.308-.014,9.995,9.995,0,0,1,.687.813.252.252,0,0,1,.014.294.237.237,0,0,1-.238.112Zm120.424-.14a12.417,12.417,0,0,1-4.009-6.924.209.209,0,0,1,.406-.1,11.524,11.524,0,0,0,4.345,6.2.166.166,0,0,1,.014.294,3.647,3.647,0,0,0-.448.491.211.211,0,0,1-.167.112A.2.2,0,0,1,183.852,60.6ZM17.4,60.57a.245.245,0,0,1-.252-.168c-.056-.112.028-.182.2-.182h3.462V54.193H18.114a.245.245,0,0,1-.252-.168c-.042-.112.042-.182.2-.182h2.747V49.624a.2.2,0,0,1,.224-.224c.813.028,1.233.154,1.233.365,0,.112-.2.252-.6.406v3.672h1.78l.547-.729c.1-.126.21-.14.308-.028.224.238.434.462.6.673a.253.253,0,0,1,.028.308.283.283,0,0,1-.252.126H21.66V60.22h2.285l.617-.827a.183.183,0,0,1,.306-.016,4.378,4.378,0,0,1,.619.745.251.251,0,0,1,.014.294.286.286,0,0,1-.266.154Zm171.078-.014a.245.245,0,0,1-.252-.168c-.042-.112.042-.182.2-.182h5.522V56.422h-3.826a.245.245,0,0,1-.252-.168c-.042-.112.042-.182.21-.182h3.868v-3.28h-3.126a12.345,12.345,0,0,1-1.948,3.083.2.2,0,0,1-.308.028c-.084-.056-.084-.14,0-.266a15.166,15.166,0,0,0,2.187-5.7c.028-.14.126-.2.28-.154.771.21,1.163.407,1.163.575,0,.14-.21.238-.631.308-.168.589-.365,1.177-.589,1.78h2.971V49.288c0-.14.07-.224.238-.21.841.056,1.261.182,1.261.364,0,.126-.21.266-.617.421v2.579h3.238l.6-.8a.178.178,0,0,1,.308-.028,8.119,8.119,0,0,1,.673.757.233.233,0,0,1,.028.294.269.269,0,0,1-.253.126h-4.6v3.28h2.593l.589-.8a.178.178,0,0,1,.309-.028,8.244,8.244,0,0,1,.645.729.217.217,0,0,1,.028.294.265.265,0,0,1-.252.154h-3.91v3.784h3.812l.659-.855a.191.191,0,0,1,.309-.028c.21.224.449.49.7.813a.234.234,0,0,1,.028.294.268.268,0,0,1-.252.126Zm-163.61-1.18-.012-.012.014.014Zm86.452-.8a.245.245,0,0,1-.252-.168c-.042-.112.028-.182.2-.182h10.33l.645-.785c.084-.126.2-.126.308-.014.28.266.5.5.7.7a.255.255,0,0,1,.028.308.266.266,0,0,1-.252.14Zm2.3-.939a.2.2,0,0,1-.224-.224V51.881c0-.168.1-.238.266-.168a6.913,6.913,0,0,1,.645.322h2.411V50.773H111.74a.256.256,0,0,1-.252-.168c-.042-.112.042-.182.2-.182h5.032V49.091a.206.206,0,0,1,.224-.224c.771.028,1.163.14,1.163.322,0,.126-.2.252-.589.393v.841h3.728l.574-.743a.191.191,0,0,1,.309-.028l.112.1a7.758,7.758,0,0,1,.561.589.253.253,0,0,1,.042.308.268.268,0,0,1-.252.126h-5.074v1.261h2.411l.393-.449a.212.212,0,0,1,.322-.014c.434.35.659.589.659.7,0,.056-.042.112-.126.182l-.337.238v4.667a.2.2,0,0,1-.224.224h-.365c-.14,0-.21-.07-.21-.224v-.294h-5.845v.35a.2.2,0,0,1-.224.224Zm.575-.925h5.845V55.441h-5.845Zm0-1.626h5.845V53.885h-5.845Zm0-1.556h5.845V52.385h-5.845ZM141.8,55.258c-.07-.084-.028-.168.1-.238a13.536,13.536,0,0,0,5.55-6.083.225.225,0,0,1,.281-.14q1.093.21,1.093.462c0,.112-.21.2-.6.238l.084.112a14.3,14.3,0,0,0,5.8,4.163c.154.07.168.182.042.308a2.7,2.7,0,0,0-.378.49.217.217,0,0,1-.308.084,14.62,14.62,0,0,1-5.438-4.793.954.954,0,0,0-.1.154,13.088,13.088,0,0,1-5.831,5.326.29.29,0,0,1-.117.028A.205.205,0,0,1,141.8,55.258Zm-113.389,0c-.07-.084-.028-.168.1-.238a13.536,13.536,0,0,0,5.55-6.083.225.225,0,0,1,.28-.14q1.093.21,1.093.462c0,.112-.21.2-.6.238l.084.112a14.3,14.3,0,0,0,5.8,4.163c.154.07.168.182.042.308a2.674,2.674,0,0,0-.378.49.217.217,0,0,1-.309.084,14.619,14.619,0,0,1-5.438-4.793.934.934,0,0,0-.1.154,13.09,13.09,0,0,1-5.831,5.326.29.29,0,0,1-.117.028A.206.206,0,0,1,28.416,55.258Zm21.514-.252a.2.2,0,0,1-.21-.224V51.53c0-.168.1-.238.252-.168a6.151,6.151,0,0,1,.631.294h3.378l.365-.449a.2.2,0,0,1,.322-.028c.448.35.659.589.659.687a.2.2,0,0,1-.112.168l-.336.238V54.7c0,.154-.07.224-.21.224H54.3c-.14,0-.21-.07-.21-.224v-.322H50.5v.406a.2.2,0,0,1-.21.224Zm.575-.981h3.588V52.007H50.5Zm179.193.224a9.739,9.739,0,0,0-.813-.9c-1.85.252-4.6.462-8.213.673-.1.322-.21.49-.309.49-.182,0-.322-.336-.448-1.009-.028-.154.042-.238.21-.238.575,0,.995-.014,1.276-.014l.939-.014a13.875,13.875,0,0,0,1.247-2.172h-4.331A.245.245,0,0,1,219,50.9c-.042-.112.042-.182.21-.182H224.6V49.049a.2.2,0,0,1,.238-.21c.8.056,1.205.168,1.205.35,0,.126-.21.238-.631.365v1.163H229.5l.589-.841a.185.185,0,0,1,.308-.042,8.71,8.71,0,0,1,.8.827.232.232,0,0,1,.014.294c-.042.084-.112.112-.238.112h-6.209a22.28,22.28,0,0,1-1.92,2.158h.561c1.5,0,3.21-.1,5.116-.21a13.107,13.107,0,0,0-1.808-1.3.183.183,0,0,1-.07-.294c.028-.056.112-.056.238-.014,2.481,1.023,3.728,1.92,3.728,2.677a.4.4,0,0,1-.449.449A.625.625,0,0,1,229.7,54.249Zm-153.81-.378A3,3,0,0,0,74.879,52.5c-.112-.084-.14-.168-.1-.252s.126-.1.266-.056c1.177.364,1.766.869,1.766,1.5,0,.35-.154.533-.476.533A.435.435,0,0,1,75.888,53.871ZM172.85,54a.407.407,0,0,1-.154-.294.763.763,0,0,1,.252-.462,3.537,3.537,0,0,0,.869-2.172c.014-.14.1-.224.238-.2q.147,0,.168.21c.028.14.042.266.056.365h4.107V49.077a.206.206,0,0,1,.224-.224c.827.042,1.248.168,1.248.35,0,.126-.21.266-.645.42v1.822h4.219l.406-.519a.2.2,0,0,1,.322-.014c.574.589.869.967.869,1.107,0,.084-.07.126-.2.154l-.421.07a11.109,11.109,0,0,1-1.359,1.205.209.209,0,0,1-.309-.014c-.07-.056-.056-.14.014-.266A9.818,9.818,0,0,0,183.5,51.8h-9.194v.2a3.752,3.752,0,0,1-.322,1.612c-.2.406-.449.6-.729.6A.555.555,0,0,1,172.85,54Zm-27.863.21a.256.256,0,0,1-.252-.168c-.042-.112.042-.182.2-.182h4.653l.519-.631a.192.192,0,0,1,.308-.028c.238.21.448.406.645.589a.256.256,0,0,1,.042.309.25.25,0,0,1-.238.112Zm-113.389,0a.257.257,0,0,1-.252-.168c-.042-.112.042-.182.2-.182h4.653l.518-.631a.192.192,0,0,1,.308-.028c.238.21.449.406.645.589a.256.256,0,0,1,.042.309.249.249,0,0,1-.238.112Zm45.37-3.532a2.59,2.59,0,0,0-1.079-1.191c-.112-.084-.154-.154-.1-.252s.126-.126.266-.1c1.248.336,1.864.827,1.864,1.444,0,.365-.168.547-.49.547C77.233,51.124,77.079,50.97,76.967,50.675Zm157.889-.084a.227.227,0,0,1-.238-.182c-.042-.1.042-.168.2-.168h4.037l.547-.729a.191.191,0,0,1,.308-.028c.2.2.393.434.617.7a.253.253,0,0,1,.028.308.232.232,0,0,1-.224.1ZM48.739,50.269a.227.227,0,0,1-.238-.182c-.042-.1.042-.168.2-.168h5.985l.575-.715a.19.19,0,0,1,.308-.028,6.064,6.064,0,0,1,.673.673.238.238,0,0,1,.042.308.248.248,0,0,1-.238.112Zm131.379-32.9V10.186c0-1.027-.218-1.618-.684-1.742a6.707,6.707,0,0,0-1.493-.156c-.342-.031-.5-.186-.5-.5s.155-.466.5-.5a22.226,22.226,0,0,0,3.7-.374c.342-.062.529.094.529.436v9.55c0,3.142,1.151,4.729,3.453,4.729a4.6,4.6,0,0,0,2.987-1.089,5.668,5.668,0,0,0,1.866-3.049V10.155c0-.933-.249-1.493-.746-1.711a5.467,5.467,0,0,0-1.462-.187c-.342,0-.5-.155-.5-.5,0-.28.155-.435.5-.466a25.294,25.294,0,0,0,3.7-.374c.342-.062.529.094.529.436V19.487c0,.933.311,1.524.9,1.742a4.628,4.628,0,0,0,1.369.218c.311,0,.5.156.5.436s-.186.435-.5.435h-3.64a.435.435,0,0,1-.5-.466l-.125-2.053a5.831,5.831,0,0,1-5.257,3.142C181.829,22.941,180.118,21.074,180.118,17.372Zm24.545,4.417a2.443,2.443,0,0,0-1.027-.4c-.249,0-.4.218-.466.622-.062.311-.218.5-.5.5s-.436-.187-.436-.5V17.279c0-.342.156-.5.5-.5a.449.449,0,0,1,.5.466,4.919,4.919,0,0,0,5.1,4.48c2.147,0,3.235-.964,3.235-2.862a2.505,2.505,0,0,0-.965-2.053,12.711,12.711,0,0,0-3.018-1.338l-.933-.311a11.534,11.534,0,0,1-2.862-1.307,3.478,3.478,0,0,1-1.369-2.831A3.911,3.911,0,0,1,203.7,8.1a5.119,5.119,0,0,1,3.64-1.307,6.3,6.3,0,0,1,3.484.933,1.62,1.62,0,0,0,.747.249c.155,0,.28-.155.373-.435a.491.491,0,0,1,.529-.467c.187,0,.311.155.311.5V11.43c0,.311-.156.5-.436.5a.478.478,0,0,1-.5-.435,4.606,4.606,0,0,0-1.182-2.364,4.4,4.4,0,0,0-3.142-1.275,3.307,3.307,0,0,0-2.52,1,2.368,2.368,0,0,0-.715,1.8c0,1.213,1.057,2.177,3.142,2.8l.809.249a12.529,12.529,0,0,1,3.671,1.648,3.748,3.748,0,0,1,1.555,3.111,3.927,3.927,0,0,1-1.742,3.484,5.814,5.814,0,0,1-3.329.933A7.578,7.578,0,0,1,204.663,21.789Zm42.774-1.026a8.1,8.1,0,0,1-2.24-6,8.141,8.141,0,0,1,2.271-5.973,7.4,7.4,0,0,1,10.266.031,7.95,7.95,0,0,1,2.24,5.879,8.2,8.2,0,0,1-2.24,6.066,7.085,7.085,0,0,1-5.164,2.053A7.013,7.013,0,0,1,247.437,20.763ZM248.868,9.75a8.516,8.516,0,0,0-1.369,5.008,8,8,0,0,0,1.493,5.133,4.595,4.595,0,0,0,7.653-.685,9.172,9.172,0,0,0,1.026-4.417,8.189,8.189,0,0,0-1.493-5.195,4.537,4.537,0,0,0-7.31.155ZM121.852,20.763a8.1,8.1,0,0,1-2.24-6,8.141,8.141,0,0,1,2.271-5.973,7.4,7.4,0,0,1,10.266.031,7.95,7.95,0,0,1,2.24,5.879,8.2,8.2,0,0,1-2.24,6.066,7.085,7.085,0,0,1-5.164,2.053A7.014,7.014,0,0,1,121.852,20.763ZM123.283,9.75a8.516,8.516,0,0,0-1.369,5.008,8,8,0,0,0,1.493,5.133,4.594,4.594,0,0,0,7.653-.685,9.169,9.169,0,0,0,1.027-4.417,8.189,8.189,0,0,0-1.493-5.195,4.537,4.537,0,0,0-7.31.155ZM55.311,20.763a8.1,8.1,0,0,1-2.24-6,8.14,8.14,0,0,1,2.271-5.973,7.4,7.4,0,0,1,10.266.031,7.949,7.949,0,0,1,2.24,5.879,8.2,8.2,0,0,1-2.24,6.066,7.085,7.085,0,0,1-5.164,2.053A7.013,7.013,0,0,1,55.311,20.763ZM56.742,9.75a8.514,8.514,0,0,0-1.369,5.008,8,8,0,0,0,1.493,5.133,4.594,4.594,0,0,0,7.653-.685,9.169,9.169,0,0,0,1.027-4.417,8.191,8.191,0,0,0-1.493-5.195,4.537,4.537,0,0,0-7.31.155ZM231.322,22.318c-.342,0-.5-.155-.5-.466,0-.249.156-.4.5-.4a7.179,7.179,0,0,0,1.213-.155c.653-.156,1-.778,1-1.8V12.955c0-3.142-1.151-4.7-3.453-4.7-2.24,0-3.858,1.245-4.76,3.733v7.5c0,.933.218,1.493.715,1.711a5.46,5.46,0,0,0,1.493.249.458.458,0,0,1,.5.5c0,.249-.186.373-.5.373h-6.533a.412.412,0,0,1-.466-.466c0-.249.155-.4.466-.4a6.211,6.211,0,0,0,1.276-.186c.653-.187,1-.778,1-1.773V3.249c0-.933-.249-1.493-.715-1.711a6.272,6.272,0,0,0-1.493-.187c-.342,0-.5-.155-.5-.5a.425.425,0,0,1,.466-.467A28.072,28.072,0,0,0,224.79.014a.4.4,0,0,1,.529.435V9.937a6.047,6.047,0,0,1,5.195-3.018c3.391,0,5.1,1.867,5.1,5.6v6.968c0,.933.249,1.493.715,1.711a5.688,5.688,0,0,0,1.493.249c.311,0,.5.156.5.436s-.186.435-.5.435Zm-65.266,0a.412.412,0,0,1-.467-.466c0-.249.156-.374.5-.4q1.12-.093,1.12-.653a2.71,2.71,0,0,0-.715-1.213l-4.324-5.2L160.3,15.941v3.546c0,.933.218,1.493.715,1.711a6.026,6.026,0,0,0,1.587.249.458.458,0,0,1,.5.5c0,.249-.187.373-.5.373h-6.626a.412.412,0,0,1-.467-.466c0-.249.156-.4.467-.4a6.214,6.214,0,0,0,1.276-.186c.653-.187,1-.778,1-1.773V3.249c0-.964-.249-1.524-.715-1.711a6.272,6.272,0,0,0-1.493-.187.432.432,0,0,1-.5-.5.425.425,0,0,1,.466-.467,28.078,28.078,0,0,0,3.764-.373.4.4,0,0,1,.529.435V14.635l5.382-4.511c.653-.529,1-.933,1-1.245,0-.342-.5-.56-1.524-.622-.342-.031-.5-.187-.5-.5,0-.28.156-.435.467-.435h5.755a.435.435,0,0,1,.5.466c0,.311-.155.436-.467.5a7.365,7.365,0,0,0-3.235,1.68L163.6,13.3l4.977,5.942a5.356,5.356,0,0,0,3.018,2.178c.311.062.467.187.467.467s-.187.435-.5.435Zm-23.642,0c-.342,0-.5-.155-.5-.466,0-.249.155-.4.5-.4a6.286,6.286,0,0,0,1.182-.186q1.026-.28,1.027-1.773v-9.3c0-1-.249-1.556-.747-1.742a5.687,5.687,0,0,0-1.462-.187c-.342,0-.5-.155-.5-.5,0-.28.155-.435.5-.466a23.7,23.7,0,0,0,3.733-.374c.342-.062.529.094.529.436V19.487c0,.933.249,1.493.715,1.711a5.4,5.4,0,0,0,1.431.249c.342,0,.5.156.5.436s-.155.435-.5.435Zm-38.7,0a.412.412,0,0,1-.466-.466c0-.249.155-.4.466-.436a4.87,4.87,0,0,0,1.742-.342q.933-.42.933-2.053V11.586H94.663v7.435c0,1.057.249,1.711.778,1.991a5.3,5.3,0,0,0,1.929.4.475.475,0,0,1,.466.529q0,.373-.466.373H89.841a.435.435,0,0,1-.5-.466c0-.249.187-.4.467-.436a5.2,5.2,0,0,0,1.773-.342q.933-.42.933-2.053V3.747c0-1.058-.249-1.742-.809-2.022a6.289,6.289,0,0,0-1.9-.436.466.466,0,0,1-.467-.5c0-.249.187-.4.5-.4H97.37a.435.435,0,0,1,.466.5c0,.249-.155.373-.466.4a7.807,7.807,0,0,0-1.773.374c-.622.249-.933.933-.933,2.084v6.6h11.728V3.778a2.061,2.061,0,0,0-.964-2.022,6.629,6.629,0,0,0-1.867-.467.449.449,0,0,1-.467-.5c0-.249.156-.4.467-.4h7.746a.435.435,0,0,1,.466.5c0,.249-.155.373-.466.4a7.773,7.773,0,0,0-2.022.467c-.5.28-.746.933-.746,2.022V19.021c0,1.026.28,1.68.84,1.991a4.849,4.849,0,0,0,1.929.4q.467.047.466.467c0,.28-.155.435-.466.435Zm-64.55,0a.435.435,0,0,1-.5-.466c0-.249.187-.4.5-.4a11,11,0,0,0,1.182-.155c.685-.156,1.027-.778,1.027-1.8V12.955c0-3.142-1.151-4.7-3.453-4.7-2.271,0-3.826,1.245-4.728,3.733v7.5c0,.965.28,1.524.84,1.742a4.576,4.576,0,0,0,1.337.218.458.458,0,0,1,.5.5c0,.249-.187.373-.5.373h-6.5c-.342,0-.5-.155-.5-.466,0-.249.156-.4.5-.4a5.545,5.545,0,0,0,1.213-.186q1.027-.28,1.027-1.773v-9.3c0-1-.249-1.556-.747-1.742a6.237,6.237,0,0,0-1.493-.187.432.432,0,0,1-.5-.5c0-.28.156-.435.5-.466a21.5,21.5,0,0,0,3.671-.374c.342-.062.529.094.529.436v2.738a5.917,5.917,0,0,1,5.288-3.173c3.391,0,5.1,1.867,5.1,5.6v6.968c0,.933.311,1.524.9,1.742a4.345,4.345,0,0,0,1.307.218c.311,0,.5.156.5.436s-.187.435-.5.435Zm-23.954,0a.435.435,0,0,1-.5-.466c0-.249.186-.4.5-.4,1.493-.062,2.24-.435,2.24-1.089a4.275,4.275,0,0,0-.311-1.493L15.4,14.635H6.626l-1.68,4.386A4.038,4.038,0,0,0,4.6,20.389c0,.653.716,1,2.209,1.058a.458.458,0,0,1,.5.5c0,.249-.155.373-.5.373H.5c-.342,0-.5-.155-.5-.466,0-.249.156-.4.5-.4H.187A3.354,3.354,0,0,0,3.422,18.99L10.826.418a.569.569,0,0,1,.56-.373h.031a.57.57,0,0,1,.56.373l7.559,18.758a3.358,3.358,0,0,0,2.862,2.24q.467.047.467.467c0,.28-.156.435-.5.435Zm-8.15-8.866h7.933L11.012,3.467ZM144.094,1.88A1.393,1.393,0,0,1,145.65.294a1.527,1.527,0,0,1,1.12.466,1.58,1.58,0,0,1,.467,1.12,1.571,1.571,0,0,1-3.142,0Z" transform="translate(0.5 0.502)" fill="#414141" stroke="rgba(0,0,0,0)" stroke-width="1"/></svg>
