<?xml version="1.0" standalone="no"?>
<!DOCTYPE svg PUBLIC "-//W3C//DTD SVG 20010904//EN"
 "http://www.w3.org/TR/2001/REC-SVG-20010904/DTD/svg10.dtd">
<svg version="1.0" xmlns="http://www.w3.org/2000/svg"
 width="700.000000pt" height="700.000000pt" viewBox="0 0 700.000000 700.000000"
 preserveAspectRatio="xMidYMid meet">
<metadata>
Created by potrace 1.11, written by Peter Selinger 2001-2013
</metadata>
<g transform="translate(0.000000,700.000000) scale(0.100000,-0.100000)"
fill="#000000" stroke="none">
<path d="M3299 6306 c-2 -2 -42 -7 -89 -10 -47 -4 -94 -9 -105 -11 -11 -2 -42
-7 -69 -10 -27 -3 -52 -8 -55 -10 -3 -1 -24 -6 -46 -9 -122 -19 -360 -90 -525
-156 -178 -71 -441 -220 -606 -345 -427 -320 -742 -730 -934 -1215 -39 -98
-108 -311 -116 -358 -17 -97 -16 -95 -111 -118 -318 -77 -557 -324 -627 -650
-20 -97 -14 -286 13 -381 89 -309 325 -534 636 -604 22 -5 81 -12 130 -15 50
-4 91 -8 93 -9 2 -2 27 -52 55 -111 148 -307 314 -542 552 -779 261 -261 504
-428 855 -588 244 -111 583 -198 869 -224 109 -10 433 -10 531 1 82 8 310 45
320 51 4 2 22 7 41 10 19 3 88 22 154 41 516 150 976 446 1330 854 166 192
274 355 396 599 l78 154 85 -1 c378 -4 716 254 818 625 31 114 31 316 0 428
-92 327 -346 555 -686 615 -33 5 -61 12 -63 14 -3 2 -17 55 -33 118 -143 568
-499 1114 -975 1494 -383 305 -877 514 -1370 579 -22 3 -56 8 -75 11 -41 6
-466 15 -471 10z m499 -406 c89 -12 93 -14 123 -51 47 -59 96 -177 117 -280
15 -73 19 -126 17 -239 -2 -80 -5 -155 -8 -166 -3 -12 -8 -37 -11 -55 -11 -65
-17 -94 -32 -154 -16 -64 -74 -255 -81 -268 -6 -11 -91 61 -226 193 -339 329
-519 659 -531 975 -1 25 3 45 9 45 26 1 120 13 124 16 9 8 415 -4 499 -16z
m-862 -102 c20 -259 136 -533 330 -786 35 -45 64 -84 64 -87 0 -3 -182 68
-265 104 -11 5 -38 17 -60 26 -359 154 -511 320 -549 598 l-5 39 67 30 c103
47 399 143 410 133 2 -2 6 -27 8 -57z m1360 -22 c418 -145 835 -449 1098 -801
37 -50 73 -97 79 -106 27 -35 101 -159 147 -244 79 -145 162 -363 204 -534 22
-86 31 -132 52 -266 3 -22 8 -47 9 -55 2 -8 4 -28 4 -45 2 -55 10 -58 92 -45
123 19 212 23 272 11 127 -27 244 -115 305 -229 42 -78 47 -101 46 -222 0 -96
-3 -111 -32 -173 -55 -120 -172 -220 -292 -252 -97 -26 -186 -17 -325 30
l-126 43 -10 -27 c-6 -14 -25 -69 -44 -121 -173 -495 -463 -895 -860 -1186
-345 -254 -754 -414 -1175 -462 -85 -9 -425 -9 -515 0 -470 51 -931 243 -1285
536 -76 63 -277 264 -320 318 -19 25 -45 58 -58 72 -60 70 -191 282 -257 417
-40 83 -95 211 -121 285 -26 74 -48 136 -50 138 -1 2 -51 -10 -111 -26 -59
-16 -137 -30 -173 -31 -253 -7 -460 194 -460 449 0 177 97 329 260 408 l75 37
166 -1 166 -1 16 111 c19 129 22 142 48 256 114 493 399 955 801 1296 95 81
295 220 304 212 2 -2 15 -44 29 -93 33 -112 81 -204 150 -288 139 -168 304
-267 730 -437 263 -105 383 -163 475 -228 78 -55 161 -141 186 -191 25 -52 67
-83 113 -84 76 -2 105 38 194 263 39 99 77 207 93 260 22 76 47 174 55 215 5
28 11 59 13 71 2 12 7 45 11 75 4 30 9 65 11 79 5 34 5 260 0 285 -2 11 -7 43
-10 70 -8 61 -33 158 -51 203 -8 17 -10 32 -6 32 4 0 39 -11 77 -24z"/>
<path d="M2503 3659 c-128 -23 -217 -130 -215 -258 4 -188 200 -308 367 -226
149 73 192 255 92 387 -56 73 -154 112 -244 97z"/>
<path d="M4413 3659 c-192 -34 -279 -255 -160 -411 116 -152 361 -122 436 52
54 125 4 272 -112 331 -50 26 -113 37 -164 28z"/>
<path d="M2620 2563 c-43 -22 -79 -83 -74 -125 6 -51 52 -117 143 -208 176
-175 392 -285 636 -326 76 -12 281 -13 350 -1 298 52 567 213 734 438 34 47
41 63 41 103 0 81 -58 136 -145 136 -37 0 -46 -7 -179 -149 -109 -115 -252
-199 -411 -242 -112 -30 -316 -30 -430 0 -81 21 -285 115 -285 131 0 5 -9 11
-19 15 -17 5 -102 88 -197 193 -48 52 -107 65 -164 35z"/>
</g>
</svg>
